<mxfile host="app.diagrams.net" modified="2023-06-02T18:19:25.487Z" agent="Mozilla/5.0 (Windows NT 10.0; Win64; x64) AppleWebKit/537.36 (KHTML, like Gecko) Chrome/113.0.0.0 Safari/537.36" version="21.3.5" etag="TrnNORV4WU9BCpSw2Fkg" type="github">
  <diagram name="PÃ¡gina-1" id="eDyP_LcKFuK1hruEr1HJ">
    <mxGraphModel>
      <root>
        <mxCell id="0" />
        <mxCell id="1" parent="0" />
      </root>
    </mxGraphModel>
  </diagram>
</mxfile>
